<svg xmlns="http://www.w3.org/2000/svg" width="57.156" height="22.156" viewBox="0 0 57.156 22.156">
  <defs>
    <style>
      .cls-1 {
        fill-rule: evenodd;
      }
    </style>
  </defs>
  <path id="Arrow" class="cls-1" d="M40.692,2.388c0.232-.837,1.2-0.506,1.783-0.309,1.282,0.431,2.515,1.036,3.79,1.494C48.019,4.2,49.793,4.79,51.55,5.418c1.022,0.366,2.055.722,3.053,1.151,0.888,0.381,1.017.368,0.523,1.224a46.493,46.493,0,0,1-3.768,5.241,29,29,0,0,1-7.822,7.429c-0.373-1.4-.139-2.983-0.667-4.361a2.941,2.941,0,0,0-2.427-2.053c-2.661-.446-5.393.194-8.047,0.382-6.108.432-12.227,0.445-18.347,0.5-1.137-.054-2.275-0.136-3.418-0.126-2.032.018-3.982-.017-6.014-0.157a9.358,9.358,0,0,1-1.816-.03,1.361,1.361,0,0,1-.826-1.162c-0.494-1.668-.153-3.483-0.318-5.192A3.664,3.664,0,0,1,1.53,6.7c0.338-.727,1.651-0.636,2.3-0.652C5.615,6,7.4,5.854,9.2,5.818c4.079-.087,8.183-0.109,12.261.028,4.06,0.136,8.116.459,12.182,0.462,1.074,0,2.117.025,3.188,0.092a6.88,6.88,0,0,0,3.157-.221,1.833,1.833,0,0,0,.9-2.075A5.253,5.253,0,0,1,40.692,2.388Zm-1.515-.627c1.022-3.13,5.215-.659,7.071,0,2.125,0.758,4.266,1.461,6.386,2.229,1.25,0.454,3.483.89,4.271,2.12,0.726,1.135-.315,2.441-0.942,3.341-1.188,1.7-2.51,3.307-3.811,4.921a33.458,33.458,0,0,1-8.62,7.851,0.775,0.775,0,0,1-1.054-.256,15.57,15.57,0,0,1-1.157-4.439,2.056,2.056,0,0,0-2.313-1.909c-2.835-.143-5.7.355-8.536,0.427-5.4.14-10.808,0.014-16.212-.144-1.906.2-3.8,0.384-5.731,0.48-1.3.063-2.588-.1-3.885-0.162C3.922,16.185,3.166,16.3,2.45,16.2,1,16,.471,14.459.246,13.18A52.077,52.077,0,0,1,0,7.29,2.383,2.383,0,0,1,1.849,4.8a23.109,23.109,0,0,1,5.36-.379c4.722-.187,9.5-0.179,14.221-0.015,4.6,0.162,9.182.361,13.78,0.464a23.711,23.711,0,0,0,3.655.1c0.909-.12.488-0.787,0.346-1.522A3.357,3.357,0,0,1,39.176,1.761Zm3.3,0.318c-0.584-.2-1.55-0.528-1.783.309A5.253,5.253,0,0,0,40.882,4.1a1.833,1.833,0,0,1-.9,2.075,6.88,6.88,0,0,1-3.157.221c-1.071-.068-2.113-0.094-3.188-0.092-4.065,0-8.122-.326-12.182-0.462C17.378,5.709,13.274,5.731,9.2,5.818,7.4,5.854,5.615,6,3.825,6.047c-0.644.016-1.957-.075-2.3,0.652a3.664,3.664,0,0,0,.126,1.568c0.166,1.709-.175,3.524.318,5.192A1.361,1.361,0,0,0,2.8,14.621a9.358,9.358,0,0,0,1.816.03c2.033,0.14,3.982.175,6.014,0.157,1.143-.01,2.281.071,3.418,0.126,6.119-.058,12.239-0.071,18.347-0.5,2.654-.188,5.387-0.828,8.047-0.382A2.941,2.941,0,0,1,42.869,16.1c0.528,1.378.294,2.963,0.667,4.361a29,29,0,0,0,7.822-7.429,46.493,46.493,0,0,0,3.768-5.241c0.494-.856.365-0.844-0.523-1.224-1-.428-2.032-0.785-3.053-1.151C49.793,4.79,48.019,4.2,46.264,3.574,44.989,3.115,43.756,2.51,42.474,2.079Z" transform="translate(0 -0.188)"/>
</svg>
